<mxfile host="app.diagrams.net" modified="2020-10-06T00:13:44.985Z" agent="5.0 (Windows NT 10.0; Win64; x64) AppleWebKit/537.36 (KHTML, like Gecko) Chrome/85.0.4183.121 Safari/537.36" etag="TMkAS6NNPkhyyNlLDdko" version="13.7.7" type="github">
  <diagram id="j8QbVErSuERY5VJ0-Oyq" name="Page-1">
    <mxGraphModel dx="1038" dy="580" grid="1" gridSize="10" guides="1" tooltips="1" connect="1" arrows="1" fold="1" page="1" pageScale="1" pageWidth="827" pageHeight="1169" math="0" shadow="0">
      <root>
        <mxCell id="0" />
        <mxCell id="1" parent="0" />
        <mxCell id="E-kPm7PKlaooVLcAaQ-z-24" value="Relation" style="endArrow=open;html=1;endSize=12;startArrow=diamondThin;startSize=14;startFill=0;edgeStyle=orthogonalEdgeStyle;entryX=0;entryY=0.5;entryDx=0;entryDy=0;" parent="1" source="E-kPm7PKlaooVLcAaQ-z-10" target="E-kPm7PKlaooVLcAaQ-z-13" edge="1">
          <mxGeometry relative="1" as="geometry">
            <mxPoint x="330" y="300" as="sourcePoint" />
            <mxPoint x="490" y="300" as="targetPoint" />
            <Array as="points" />
          </mxGeometry>
        </mxCell>
        <mxCell id="E-kPm7PKlaooVLcAaQ-z-25" value="0..n" style="edgeLabel;resizable=0;html=1;align=left;verticalAlign=top;" parent="E-kPm7PKlaooVLcAaQ-z-24" connectable="0" vertex="1">
          <mxGeometry x="-1" relative="1" as="geometry" />
        </mxCell>
        <mxCell id="E-kPm7PKlaooVLcAaQ-z-26" value="1" style="edgeLabel;resizable=0;html=1;align=right;verticalAlign=top;" parent="E-kPm7PKlaooVLcAaQ-z-24" connectable="0" vertex="1">
          <mxGeometry x="1" relative="1" as="geometry" />
        </mxCell>
        <mxCell id="E-kPm7PKlaooVLcAaQ-z-9" value="liquidaciones" style="swimlane;fontStyle=0;childLayout=stackLayout;horizontal=1;startSize=26;fillColor=none;horizontalStack=0;resizeParent=1;resizeParentMax=0;resizeLast=0;collapsible=1;marginBottom=0;" parent="1" vertex="1">
          <mxGeometry x="40" y="70" width="140" height="104" as="geometry" />
        </mxCell>
        <mxCell id="E-kPm7PKlaooVLcAaQ-z-10" value="id_liquidación (PK)" style="text;strokeColor=none;fillColor=none;align=left;verticalAlign=top;spacingLeft=4;spacingRight=4;overflow=hidden;rotatable=0;points=[[0,0.5],[1,0.5]];portConstraint=eastwest;" parent="E-kPm7PKlaooVLcAaQ-z-9" vertex="1">
          <mxGeometry y="26" width="140" height="26" as="geometry" />
        </mxCell>
        <mxCell id="E-kPm7PKlaooVLcAaQ-z-31" value="rut_trabajador(FK)" style="text;strokeColor=none;fillColor=none;align=left;verticalAlign=top;spacingLeft=4;spacingRight=4;overflow=hidden;rotatable=0;points=[[0,0.5],[1,0.5]];portConstraint=eastwest;" parent="E-kPm7PKlaooVLcAaQ-z-9" vertex="1">
          <mxGeometry y="52" width="140" height="26" as="geometry" />
        </mxCell>
        <mxCell id="E-kPm7PKlaooVLcAaQ-z-11" value="repositorio" style="text;strokeColor=none;fillColor=none;align=left;verticalAlign=top;spacingLeft=4;spacingRight=4;overflow=hidden;rotatable=0;points=[[0,0.5],[1,0.5]];portConstraint=eastwest;" parent="E-kPm7PKlaooVLcAaQ-z-9" vertex="1">
          <mxGeometry y="78" width="140" height="26" as="geometry" />
        </mxCell>
        <mxCell id="E-kPm7PKlaooVLcAaQ-z-1" value="trabajador" style="swimlane;fontStyle=0;childLayout=stackLayout;horizontal=1;startSize=26;fillColor=none;horizontalStack=0;resizeParent=1;resizeParentMax=0;resizeLast=0;collapsible=1;marginBottom=0;" parent="1" vertex="1">
          <mxGeometry x="310" y="70" width="140" height="104" as="geometry">
            <mxRectangle x="100" y="57" width="90" height="26" as="alternateBounds" />
          </mxGeometry>
        </mxCell>
        <mxCell id="E-kPm7PKlaooVLcAaQ-z-13" value="rut_trabajador(PK)" style="text;strokeColor=none;fillColor=none;align=left;verticalAlign=top;spacingLeft=4;spacingRight=4;overflow=hidden;rotatable=0;points=[[0,0.5],[1,0.5]];portConstraint=eastwest;" parent="E-kPm7PKlaooVLcAaQ-z-1" vertex="1">
          <mxGeometry y="26" width="140" height="26" as="geometry" />
        </mxCell>
        <mxCell id="E-kPm7PKlaooVLcAaQ-z-2" value="nombre_trabajador" style="text;strokeColor=none;fillColor=none;align=left;verticalAlign=top;spacingLeft=4;spacingRight=4;overflow=hidden;rotatable=0;points=[[0,0.5],[1,0.5]];portConstraint=eastwest;" parent="E-kPm7PKlaooVLcAaQ-z-1" vertex="1">
          <mxGeometry y="52" width="140" height="26" as="geometry" />
        </mxCell>
        <mxCell id="E-kPm7PKlaooVLcAaQ-z-4" value="dirección_trabajador" style="text;strokeColor=none;fillColor=none;align=left;verticalAlign=top;spacingLeft=4;spacingRight=4;overflow=hidden;rotatable=0;points=[[0,0.5],[1,0.5]];portConstraint=eastwest;" parent="E-kPm7PKlaooVLcAaQ-z-1" vertex="1">
          <mxGeometry y="78" width="140" height="26" as="geometry" />
        </mxCell>
        <mxCell id="E-kPm7PKlaooVLcAaQ-z-5" value="departamento" style="swimlane;fontStyle=0;childLayout=stackLayout;horizontal=1;startSize=26;fillColor=none;horizontalStack=0;resizeParent=1;resizeParentMax=0;resizeLast=0;collapsible=1;marginBottom=0;" parent="1" vertex="1">
          <mxGeometry x="600" y="70" width="140" height="104" as="geometry" />
        </mxCell>
        <mxCell id="E-kPm7PKlaooVLcAaQ-z-7" value="id_depatamento (PK)" style="text;strokeColor=none;fillColor=none;align=left;verticalAlign=top;spacingLeft=4;spacingRight=4;overflow=hidden;rotatable=0;points=[[0,0.5],[1,0.5]];portConstraint=eastwest;" parent="E-kPm7PKlaooVLcAaQ-z-5" vertex="1">
          <mxGeometry y="26" width="140" height="26" as="geometry" />
        </mxCell>
        <mxCell id="E-kPm7PKlaooVLcAaQ-z-32" value="rut_trabajador(FK)" style="text;strokeColor=none;fillColor=none;align=left;verticalAlign=top;spacingLeft=4;spacingRight=4;overflow=hidden;rotatable=0;points=[[0,0.5],[1,0.5]];portConstraint=eastwest;" parent="E-kPm7PKlaooVLcAaQ-z-5" vertex="1">
          <mxGeometry y="52" width="140" height="26" as="geometry" />
        </mxCell>
        <mxCell id="E-kPm7PKlaooVLcAaQ-z-8" value="nombre_departamento" style="text;strokeColor=none;fillColor=none;align=left;verticalAlign=top;spacingLeft=4;spacingRight=4;overflow=hidden;rotatable=0;points=[[0,0.5],[1,0.5]];portConstraint=eastwest;" parent="E-kPm7PKlaooVLcAaQ-z-5" vertex="1">
          <mxGeometry y="78" width="140" height="26" as="geometry" />
        </mxCell>
        <mxCell id="E-kPm7PKlaooVLcAaQ-z-28" value="Relation" style="endArrow=open;html=1;endSize=12;startArrow=diamondThin;startSize=14;startFill=0;edgeStyle=orthogonalEdgeStyle;entryX=0;entryY=0.5;entryDx=0;entryDy=0;" parent="1" target="E-kPm7PKlaooVLcAaQ-z-7" edge="1">
          <mxGeometry relative="1" as="geometry">
            <mxPoint x="450" y="108.5" as="sourcePoint" />
            <mxPoint x="580" y="108.5" as="targetPoint" />
            <Array as="points" />
          </mxGeometry>
        </mxCell>
        <mxCell id="E-kPm7PKlaooVLcAaQ-z-29" value="0..n" style="edgeLabel;resizable=0;html=1;align=left;verticalAlign=top;" parent="E-kPm7PKlaooVLcAaQ-z-28" connectable="0" vertex="1">
          <mxGeometry x="-1" relative="1" as="geometry" />
        </mxCell>
        <mxCell id="E-kPm7PKlaooVLcAaQ-z-30" value="1" style="edgeLabel;resizable=0;html=1;align=right;verticalAlign=top;" parent="E-kPm7PKlaooVLcAaQ-z-28" connectable="0" vertex="1">
          <mxGeometry x="1" relative="1" as="geometry" />
        </mxCell>
        <mxCell id="E-kPm7PKlaooVLcAaQ-z-33" value="alumno" style="swimlane;fontStyle=0;childLayout=stackLayout;horizontal=1;startSize=26;fillColor=none;horizontalStack=0;resizeParent=1;resizeParentMax=0;resizeLast=0;collapsible=1;marginBottom=0;" parent="1" vertex="1">
          <mxGeometry x="310" y="270" width="140" height="104" as="geometry" />
        </mxCell>
        <mxCell id="E-kPm7PKlaooVLcAaQ-z-37" value="rut_alumno(PK)" style="text;strokeColor=none;fillColor=none;align=left;verticalAlign=top;spacingLeft=4;spacingRight=4;overflow=hidden;rotatable=0;points=[[0,0.5],[1,0.5]];portConstraint=eastwest;" parent="E-kPm7PKlaooVLcAaQ-z-33" vertex="1">
          <mxGeometry y="26" width="140" height="26" as="geometry" />
        </mxCell>
        <mxCell id="E-kPm7PKlaooVLcAaQ-z-60" value="id_curso(FK)" style="text;strokeColor=none;fillColor=none;align=left;verticalAlign=top;spacingLeft=4;spacingRight=4;overflow=hidden;rotatable=0;points=[[0,0.5],[1,0.5]];portConstraint=eastwest;" parent="E-kPm7PKlaooVLcAaQ-z-33" vertex="1">
          <mxGeometry y="52" width="140" height="26" as="geometry" />
        </mxCell>
        <mxCell id="E-kPm7PKlaooVLcAaQ-z-34" value="nombre_alumno" style="text;strokeColor=none;fillColor=none;align=left;verticalAlign=top;spacingLeft=4;spacingRight=4;overflow=hidden;rotatable=0;points=[[0,0.5],[1,0.5]];portConstraint=eastwest;" parent="E-kPm7PKlaooVLcAaQ-z-33" vertex="1">
          <mxGeometry y="78" width="140" height="26" as="geometry" />
        </mxCell>
        <mxCell id="E-kPm7PKlaooVLcAaQ-z-38" value="curso" style="swimlane;fontStyle=0;childLayout=stackLayout;horizontal=1;startSize=26;fillColor=none;horizontalStack=0;resizeParent=1;resizeParentMax=0;resizeLast=0;collapsible=1;marginBottom=0;" parent="1" vertex="1">
          <mxGeometry x="40" y="270" width="140" height="104" as="geometry" />
        </mxCell>
        <mxCell id="E-kPm7PKlaooVLcAaQ-z-39" value="id_curso(PK)" style="text;strokeColor=none;fillColor=none;align=left;verticalAlign=top;spacingLeft=4;spacingRight=4;overflow=hidden;rotatable=0;points=[[0,0.5],[1,0.5]];portConstraint=eastwest;" parent="E-kPm7PKlaooVLcAaQ-z-38" vertex="1">
          <mxGeometry y="26" width="140" height="26" as="geometry" />
        </mxCell>
        <mxCell id="E-kPm7PKlaooVLcAaQ-z-68" value="id_departamento(FK)" style="text;strokeColor=none;fillColor=none;align=left;verticalAlign=top;spacingLeft=4;spacingRight=4;overflow=hidden;rotatable=0;points=[[0,0.5],[1,0.5]];portConstraint=eastwest;" parent="E-kPm7PKlaooVLcAaQ-z-38" vertex="1">
          <mxGeometry y="52" width="140" height="26" as="geometry" />
        </mxCell>
        <mxCell id="E-kPm7PKlaooVLcAaQ-z-40" value="nombre_curso" style="text;strokeColor=none;fillColor=none;align=left;verticalAlign=top;spacingLeft=4;spacingRight=4;overflow=hidden;rotatable=0;points=[[0,0.5],[1,0.5]];portConstraint=eastwest;" parent="E-kPm7PKlaooVLcAaQ-z-38" vertex="1">
          <mxGeometry y="78" width="140" height="26" as="geometry" />
        </mxCell>
        <mxCell id="E-kPm7PKlaooVLcAaQ-z-47" value="pruebas" style="swimlane;fontStyle=0;childLayout=stackLayout;horizontal=1;startSize=26;fillColor=none;horizontalStack=0;resizeParent=1;resizeParentMax=0;resizeLast=0;collapsible=1;marginBottom=0;" parent="1" vertex="1">
          <mxGeometry x="580" y="270" width="140" height="126" as="geometry" />
        </mxCell>
        <mxCell id="E-kPm7PKlaooVLcAaQ-z-48" value="id_pruebas(PK)" style="text;strokeColor=none;fillColor=none;align=left;verticalAlign=top;spacingLeft=4;spacingRight=4;overflow=hidden;rotatable=0;points=[[0,0.5],[1,0.5]];portConstraint=eastwest;" parent="E-kPm7PKlaooVLcAaQ-z-47" vertex="1">
          <mxGeometry y="26" width="140" height="22" as="geometry" />
        </mxCell>
        <mxCell id="E-kPm7PKlaooVLcAaQ-z-64" value="rut_alumno(FK)" style="text;strokeColor=none;fillColor=none;align=left;verticalAlign=top;spacingLeft=4;spacingRight=4;overflow=hidden;rotatable=0;points=[[0,0.5],[1,0.5]];portConstraint=eastwest;" parent="E-kPm7PKlaooVLcAaQ-z-47" vertex="1">
          <mxGeometry y="48" width="140" height="26" as="geometry" />
        </mxCell>
        <mxCell id="E-kPm7PKlaooVLcAaQ-z-72" value="rut_profesor(FK)" style="text;strokeColor=none;fillColor=none;align=left;verticalAlign=top;spacingLeft=4;spacingRight=4;overflow=hidden;rotatable=0;points=[[0,0.5],[1,0.5]];portConstraint=eastwest;" parent="E-kPm7PKlaooVLcAaQ-z-47" vertex="1">
          <mxGeometry y="74" width="140" height="26" as="geometry" />
        </mxCell>
        <mxCell id="E-kPm7PKlaooVLcAaQ-z-50" value="puntaje_prueba" style="text;strokeColor=none;fillColor=none;align=left;verticalAlign=top;spacingLeft=4;spacingRight=4;overflow=hidden;rotatable=0;points=[[0,0.5],[1,0.5]];portConstraint=eastwest;" parent="E-kPm7PKlaooVLcAaQ-z-47" vertex="1">
          <mxGeometry y="100" width="140" height="26" as="geometry" />
        </mxCell>
        <mxCell id="E-kPm7PKlaooVLcAaQ-z-57" value="Relation" style="endArrow=open;html=1;endSize=12;startArrow=diamondThin;startSize=14;startFill=0;edgeStyle=orthogonalEdgeStyle;entryX=1;entryY=0.5;entryDx=0;entryDy=0;exitX=0;exitY=0.5;exitDx=0;exitDy=0;" parent="1" source="E-kPm7PKlaooVLcAaQ-z-37" target="E-kPm7PKlaooVLcAaQ-z-39" edge="1">
          <mxGeometry relative="1" as="geometry">
            <mxPoint x="220" y="399.5" as="sourcePoint" />
            <mxPoint x="370" y="400" as="targetPoint" />
            <Array as="points" />
          </mxGeometry>
        </mxCell>
        <mxCell id="E-kPm7PKlaooVLcAaQ-z-58" value="0..n" style="edgeLabel;resizable=0;html=1;align=left;verticalAlign=top;" parent="E-kPm7PKlaooVLcAaQ-z-57" connectable="0" vertex="1">
          <mxGeometry x="-1" relative="1" as="geometry">
            <mxPoint x="-30" as="offset" />
          </mxGeometry>
        </mxCell>
        <mxCell id="E-kPm7PKlaooVLcAaQ-z-59" value="1" style="edgeLabel;resizable=0;html=1;align=right;verticalAlign=top;" parent="E-kPm7PKlaooVLcAaQ-z-57" connectable="0" vertex="1">
          <mxGeometry x="1" relative="1" as="geometry">
            <mxPoint x="10" as="offset" />
          </mxGeometry>
        </mxCell>
        <mxCell id="E-kPm7PKlaooVLcAaQ-z-61" value="Relation" style="endArrow=open;html=1;endSize=12;startArrow=diamondThin;startSize=14;startFill=0;edgeStyle=orthogonalEdgeStyle;entryX=1;entryY=0.5;entryDx=0;entryDy=0;exitX=0;exitY=0.5;exitDx=0;exitDy=0;" parent="1" edge="1">
          <mxGeometry relative="1" as="geometry">
            <mxPoint x="580" y="306.5" as="sourcePoint" />
            <mxPoint x="450" y="306.5" as="targetPoint" />
            <Array as="points" />
          </mxGeometry>
        </mxCell>
        <mxCell id="E-kPm7PKlaooVLcAaQ-z-62" value="0..n" style="edgeLabel;resizable=0;html=1;align=left;verticalAlign=top;" parent="E-kPm7PKlaooVLcAaQ-z-61" connectable="0" vertex="1">
          <mxGeometry x="-1" relative="1" as="geometry">
            <mxPoint x="-30" as="offset" />
          </mxGeometry>
        </mxCell>
        <mxCell id="E-kPm7PKlaooVLcAaQ-z-63" value="1" style="edgeLabel;resizable=0;html=1;align=right;verticalAlign=top;" parent="E-kPm7PKlaooVLcAaQ-z-61" connectable="0" vertex="1">
          <mxGeometry x="1" relative="1" as="geometry">
            <mxPoint x="10" as="offset" />
          </mxGeometry>
        </mxCell>
        <mxCell id="E-kPm7PKlaooVLcAaQ-z-65" value="Relation" style="endArrow=open;html=1;endSize=12;startArrow=diamondThin;startSize=14;startFill=0;edgeStyle=orthogonalEdgeStyle;entryX=0.25;entryY=0;entryDx=0;entryDy=0;exitX=0.523;exitY=0.962;exitDx=0;exitDy=0;exitPerimeter=0;" parent="1" source="E-kPm7PKlaooVLcAaQ-z-40" target="E-kPm7PKlaooVLcAaQ-z-51" edge="1">
          <mxGeometry relative="1" as="geometry">
            <mxPoint x="320" y="319" as="sourcePoint" />
            <mxPoint x="190" y="319" as="targetPoint" />
            <Array as="points" />
          </mxGeometry>
        </mxCell>
        <mxCell id="E-kPm7PKlaooVLcAaQ-z-66" value="0..n" style="edgeLabel;resizable=0;html=1;align=left;verticalAlign=top;" parent="E-kPm7PKlaooVLcAaQ-z-65" connectable="0" vertex="1">
          <mxGeometry x="-1" relative="1" as="geometry">
            <mxPoint x="-30" as="offset" />
          </mxGeometry>
        </mxCell>
        <mxCell id="E-kPm7PKlaooVLcAaQ-z-67" value="1" style="edgeLabel;resizable=0;html=1;align=right;verticalAlign=top;" parent="E-kPm7PKlaooVLcAaQ-z-65" connectable="0" vertex="1">
          <mxGeometry x="1" relative="1" as="geometry">
            <mxPoint x="10" as="offset" />
          </mxGeometry>
        </mxCell>
        <mxCell id="E-kPm7PKlaooVLcAaQ-z-69" value="Relation" style="endArrow=open;html=1;endSize=12;startArrow=diamondThin;startSize=14;startFill=0;edgeStyle=orthogonalEdgeStyle;entryX=0.75;entryY=0;entryDx=0;entryDy=0;" parent="1" target="E-kPm7PKlaooVLcAaQ-z-43" edge="1">
          <mxGeometry relative="1" as="geometry">
            <mxPoint x="665" y="400" as="sourcePoint" />
            <mxPoint x="460" y="316.5" as="targetPoint" />
            <Array as="points" />
          </mxGeometry>
        </mxCell>
        <mxCell id="E-kPm7PKlaooVLcAaQ-z-70" value="0..n" style="edgeLabel;resizable=0;html=1;align=left;verticalAlign=top;" parent="E-kPm7PKlaooVLcAaQ-z-69" connectable="0" vertex="1">
          <mxGeometry x="-1" relative="1" as="geometry">
            <mxPoint x="-30" as="offset" />
          </mxGeometry>
        </mxCell>
        <mxCell id="E-kPm7PKlaooVLcAaQ-z-71" value="1" style="edgeLabel;resizable=0;html=1;align=right;verticalAlign=top;" parent="E-kPm7PKlaooVLcAaQ-z-69" connectable="0" vertex="1">
          <mxGeometry x="1" relative="1" as="geometry">
            <mxPoint x="10" as="offset" />
          </mxGeometry>
        </mxCell>
        <mxCell id="E-kPm7PKlaooVLcAaQ-z-79" value="Relation" style="endArrow=open;html=1;endSize=12;startArrow=diamondThin;startSize=14;startFill=0;edgeStyle=orthogonalEdgeStyle;entryX=1;entryY=0.5;entryDx=0;entryDy=0;" parent="1" edge="1">
          <mxGeometry relative="1" as="geometry">
            <mxPoint x="559.98" y="631.01" as="sourcePoint" />
            <mxPoint x="459.98" y="631.01" as="targetPoint" />
            <Array as="points" />
          </mxGeometry>
        </mxCell>
        <mxCell id="E-kPm7PKlaooVLcAaQ-z-80" value="0..n" style="edgeLabel;resizable=0;html=1;align=left;verticalAlign=top;" parent="E-kPm7PKlaooVLcAaQ-z-79" connectable="0" vertex="1">
          <mxGeometry x="-1" relative="1" as="geometry">
            <mxPoint x="-30" as="offset" />
          </mxGeometry>
        </mxCell>
        <mxCell id="E-kPm7PKlaooVLcAaQ-z-81" value="1" style="edgeLabel;resizable=0;html=1;align=right;verticalAlign=top;" parent="E-kPm7PKlaooVLcAaQ-z-79" connectable="0" vertex="1">
          <mxGeometry x="1" relative="1" as="geometry">
            <mxPoint x="10" as="offset" />
          </mxGeometry>
        </mxCell>
        <mxCell id="E-kPm7PKlaooVLcAaQ-z-82" value="Relation" style="endArrow=open;html=1;endSize=12;startArrow=diamondThin;startSize=14;startFill=0;edgeStyle=orthogonalEdgeStyle;entryX=-0.02;entryY=0.085;entryDx=0;entryDy=0;entryPerimeter=0;" parent="1" target="E-kPm7PKlaooVLcAaQ-z-77" edge="1">
          <mxGeometry relative="1" as="geometry">
            <mxPoint x="220" y="639.01" as="sourcePoint" />
            <mxPoint x="125" y="617.01" as="targetPoint" />
            <Array as="points" />
          </mxGeometry>
        </mxCell>
        <mxCell id="E-kPm7PKlaooVLcAaQ-z-83" value="0..n" style="edgeLabel;resizable=0;html=1;align=left;verticalAlign=top;" parent="E-kPm7PKlaooVLcAaQ-z-82" connectable="0" vertex="1">
          <mxGeometry x="-1" relative="1" as="geometry">
            <mxPoint as="offset" />
          </mxGeometry>
        </mxCell>
        <mxCell id="E-kPm7PKlaooVLcAaQ-z-84" value="1" style="edgeLabel;resizable=0;html=1;align=right;verticalAlign=top;" parent="E-kPm7PKlaooVLcAaQ-z-82" connectable="0" vertex="1">
          <mxGeometry x="1" relative="1" as="geometry">
            <mxPoint x="-6.780000000000001" as="offset" />
          </mxGeometry>
        </mxCell>
        <mxCell id="E-kPm7PKlaooVLcAaQ-z-51" value="departamento" style="swimlane;fontStyle=0;childLayout=stackLayout;horizontal=1;startSize=26;fillColor=none;horizontalStack=0;resizeParent=1;resizeParentMax=0;resizeLast=0;collapsible=1;marginBottom=0;" parent="1" vertex="1">
          <mxGeometry x="80" y="607.01" width="140" height="78" as="geometry" />
        </mxCell>
        <mxCell id="E-kPm7PKlaooVLcAaQ-z-52" value="id_departamento(PK)" style="text;strokeColor=none;fillColor=none;align=left;verticalAlign=top;spacingLeft=4;spacingRight=4;overflow=hidden;rotatable=0;points=[[0,0.5],[1,0.5]];portConstraint=eastwest;" parent="E-kPm7PKlaooVLcAaQ-z-51" vertex="1">
          <mxGeometry y="26" width="140" height="26" as="geometry" />
        </mxCell>
        <mxCell id="E-kPm7PKlaooVLcAaQ-z-53" value="nombre_departamento" style="text;strokeColor=none;fillColor=none;align=left;verticalAlign=top;spacingLeft=4;spacingRight=4;overflow=hidden;rotatable=0;points=[[0,0.5],[1,0.5]];portConstraint=eastwest;" parent="E-kPm7PKlaooVLcAaQ-z-51" vertex="1">
          <mxGeometry y="52" width="140" height="26" as="geometry" />
        </mxCell>
        <mxCell id="E-kPm7PKlaooVLcAaQ-z-73" value="departamento_profesor" style="swimlane;fontStyle=0;childLayout=stackLayout;horizontal=1;startSize=26;fillColor=none;horizontalStack=0;resizeParent=1;resizeParentMax=0;resizeLast=0;collapsible=1;marginBottom=0;" parent="1" vertex="1">
          <mxGeometry x="319.98" y="585.01" width="140" height="104" as="geometry" />
        </mxCell>
        <mxCell id="E-kPm7PKlaooVLcAaQ-z-74" value="id_prof_dep(PK)" style="text;strokeColor=none;fillColor=none;align=left;verticalAlign=top;spacingLeft=4;spacingRight=4;overflow=hidden;rotatable=0;points=[[0,0.5],[1,0.5]];portConstraint=eastwest;" parent="E-kPm7PKlaooVLcAaQ-z-73" vertex="1">
          <mxGeometry y="26" width="140" height="26" as="geometry" />
        </mxCell>
        <mxCell id="E-kPm7PKlaooVLcAaQ-z-77" value="rut_profesor(FK)" style="text;strokeColor=none;fillColor=none;align=left;verticalAlign=top;spacingLeft=4;spacingRight=4;overflow=hidden;rotatable=0;points=[[0,0.5],[1,0.5]];portConstraint=eastwest;" parent="E-kPm7PKlaooVLcAaQ-z-73" vertex="1">
          <mxGeometry y="52" width="140" height="26" as="geometry" />
        </mxCell>
        <mxCell id="E-kPm7PKlaooVLcAaQ-z-78" value="id_departamento(FK)" style="text;strokeColor=none;fillColor=none;align=left;verticalAlign=top;spacingLeft=4;spacingRight=4;overflow=hidden;rotatable=0;points=[[0,0.5],[1,0.5]];portConstraint=eastwest;" parent="E-kPm7PKlaooVLcAaQ-z-73" vertex="1">
          <mxGeometry y="78" width="140" height="26" as="geometry" />
        </mxCell>
        <mxCell id="E-kPm7PKlaooVLcAaQ-z-43" value="profesor" style="swimlane;fontStyle=0;childLayout=stackLayout;horizontal=1;startSize=26;fillColor=none;horizontalStack=0;resizeParent=1;resizeParentMax=0;resizeLast=0;collapsible=1;marginBottom=0;" parent="1" vertex="1">
          <mxGeometry x="559.98" y="585.01" width="140" height="104" as="geometry" />
        </mxCell>
        <mxCell id="E-kPm7PKlaooVLcAaQ-z-44" value="rut_profesor(PK)" style="text;strokeColor=none;fillColor=none;align=left;verticalAlign=top;spacingLeft=4;spacingRight=4;overflow=hidden;rotatable=0;points=[[0,0.5],[1,0.5]];portConstraint=eastwest;" parent="E-kPm7PKlaooVLcAaQ-z-43" vertex="1">
          <mxGeometry y="26" width="140" height="26" as="geometry" />
        </mxCell>
        <mxCell id="E-kPm7PKlaooVLcAaQ-z-45" value="nombre_profesor" style="text;strokeColor=none;fillColor=none;align=left;verticalAlign=top;spacingLeft=4;spacingRight=4;overflow=hidden;rotatable=0;points=[[0,0.5],[1,0.5]];portConstraint=eastwest;" parent="E-kPm7PKlaooVLcAaQ-z-43" vertex="1">
          <mxGeometry y="52" width="140" height="26" as="geometry" />
        </mxCell>
        <mxCell id="E-kPm7PKlaooVLcAaQ-z-46" value="nombre_departamento" style="text;strokeColor=none;fillColor=none;align=left;verticalAlign=top;spacingLeft=4;spacingRight=4;overflow=hidden;rotatable=0;points=[[0,0.5],[1,0.5]];portConstraint=eastwest;" parent="E-kPm7PKlaooVLcAaQ-z-43" vertex="1">
          <mxGeometry y="78" width="140" height="26" as="geometry" />
        </mxCell>
        <mxCell id="E-kPm7PKlaooVLcAaQ-z-90" value="EJERCICIO 1" style="text;html=1;strokeColor=#330000;fillColor=none;align=center;verticalAlign=middle;whiteSpace=wrap;rounded=0;" parent="1" vertex="1">
          <mxGeometry x="330" y="20" width="100" height="20" as="geometry" />
        </mxCell>
        <mxCell id="E-kPm7PKlaooVLcAaQ-z-91" value="EJERCICIO 2" style="text;html=1;strokeColor=#330000;fillColor=none;align=center;verticalAlign=middle;whiteSpace=wrap;rounded=0;shadow=1;" parent="1" vertex="1">
          <mxGeometry x="330" y="220" width="100" height="20" as="geometry" />
        </mxCell>
      </root>
    </mxGraphModel>
  </diagram>
</mxfile>
